# xmcd
#
# Track frame offsets: 
#        150
#        12698
#        21633
#        31478
#        46066
#        57991
#        69965
#        83623
#        93210
#        104641
#        117621
#        131007
#        142482
#        154182
#        166250
#        177214
#        191010
#        208309
#        222365
#        237222
#        247953
#        260296
#        275081
#        288370
#        302037
#        313774
#        324682
#
# Disc length: 4486 seconds
#
# Revision: 1
# Processed by: cddbd v1.5.2PL0 Copyright (c) Steve Scherf et al.
# Submitted via: ExactAudioCopy v1.0b4
#
DISCID=9f11841b
DTITLE=Various Artist - Atlantic Rhythm And Blues - 1947-1974 - Volum
DTITLE=e 6 - 1965-1967
DYEAR=1991
DGENRE=Oldies
TTITLE0=Willie Tee - Teasin' You
TTITLE1=Solomon Burke - Got To Get You Off My Mind
TTITLE2=Joe Tex - I Want To (Do Everything To You)
TTITLE3=Otis Redding - I've Been Loving You Too Long
TTITLE4=Joe Tex - A Sweet Woman Like You
TTITLE5=Wilson Pickett - In The Midnight Hour
TTITLE6=Don Covay - See Saw
TTITLE7=Otis Redding - Respect
TTITLE8=Sam and Dave - You Don't Know Like I Know
TTITLE9=Percy Sledge - When A Man Loves A Woman
TTITLE10=Wilson Pickett - 634-5789 (Soulsville U.S.A.)
TTITLE11=Sam and Dave - Hold On I'm Comin'
TTITLE12=Capitols - Cool Jerk
TTITLE13=Jimmy Hughes - Neighbor Neighbor
TTITLE14=Wilson Pickett - Land Of 1000 Dances
TTITLE15=Eddie Floyd - Knock On Wood
TTITLE16=Otis Redding - Try A Little Tenderness
TTITLE17=Wilson Pickett - Mustang Sally
TTITLE18=Sam and Dave - When Something Is Wrong With My Baby
TTITLE19=Arthur Conley - Sweet Soul Music
TTITLE20=Aretha Franklin - I Never Loved A Man (The Way I Love You)
TTITLE21=Aretha Franklin - Do Right Woman, Do Right Man
TTITLE22=Joe Tex - Show Me
TTITLE23=Otis Redding and Carla Thomas - Tramp
TTITLE24=Wilson Pickett - Funky Broadway
TTITLE25=Booker T. and The MG's - Hip Hug-Her
TTITLE26=Sam and Dave - Soul Man
EXTD=1965-1967\nCD issued 1991, Atlantic, 7 82305-2
EXTT0=Willie Tee
EXTT1=Solomon Burke
EXTT2=Joe Tex
EXTT3=Otis Redding
EXTT4=Joe Tex
EXTT5=Wilson Pickett
EXTT6=Don Covay
EXTT7=Otis Redding
EXTT8=Sam and Dave
EXTT9=Percy Sledge
EXTT10=Wilson Pickett
EXTT11=Sam and Dave
EXTT12=The Capitols
EXTT13=Jimmy Hughes
EXTT14=Wilson Pickett
EXTT15=Eddie Floyd
EXTT16=Otis Redding
EXTT17=Wilson Pickett
EXTT18=Sam and Dave
EXTT19=Arthur Conley
EXTT20=Aretha Franklin
EXTT21=Aretha Franklin
EXTT22=Joe Tex
EXTT23=Otis and Carla
EXTT24=Wilson Pickett
EXTT25=Booker T. and The MG's
EXTT26=Sam and Dave
PLAYORDER=
